<?xml version="1.0" encoding="UTF-8" standalone="no"?>
<!-- Uploaded to: SVG Repo, www.svgrepo.com, Generator: SVG Repo Mixer Tools -->

<svg
   fill="#000000"
   width="800px"
   height="800px"
   viewBox="0 0 32 32"
   version="1.1"
   id="svg1"
   sodipodi:docname="arch.svg"
   inkscape:version="1.3.2 (091e20ef0f, 2023-11-25, custom)"
   xmlns:inkscape="http://www.inkscape.org/namespaces/inkscape"
   xmlns:sodipodi="http://sodipodi.sourceforge.net/DTD/sodipodi-0.dtd"
   xmlns="http://www.w3.org/2000/svg"
   xmlns:svg="http://www.w3.org/2000/svg">
  <defs
     id="defs1" />
  <sodipodi:namedview
     id="namedview1"
     pagecolor="#ffffff"
     bordercolor="#000000"
     borderopacity="0.25"
     inkscape:showpageshadow="2"
     inkscape:pageopacity="0.0"
     inkscape:pagecheckerboard="0"
     inkscape:deskcolor="#d1d1d1"
     inkscape:zoom="1.19"
     inkscape:cx="399.57983"
     inkscape:cy="340.33613"
     inkscape:window-width="1920"
     inkscape:window-height="1164"
     inkscape:window-x="0"
     inkscape:window-y="0"
     inkscape:window-maximized="1"
     inkscape:current-layer="svg1" />
  <path
     style="fill:#2e2d2d;fill-opacity:1;stroke-width:0.035614"
     d="M 0.00789666,31.947793 C 0.01894028,31.919079 0.47571578,31.090616 1.0229533,30.10677 5.6992093,21.699607 9.020217,15.501977 10.95067,11.579768 c 0.370767,-0.753307 0.680549,-1.376209 0.688404,-1.384226 0.0078,-0.008 0.106646,0.05947 0.219534,0.149965 0.878832,0.704521 2.176939,1.465359 3.556597,2.084569 0.625878,0.280905 0.838408,0.365345 0.835738,0.332053 -0.0012,-0.01439 -0.20389,-0.170243 -0.450525,-0.346341 -1.005995,-0.718282 -1.979406,-1.554109 -2.993117,-2.5700619 l -0.683059,-0.68457 0.348781,-0.7565009 c 0.741864,-1.6090888 1.271691,-2.8566283 2.57226,-6.0566838 L 15.999549,-7.9999996e-8 16.058749,0.14230125 c 0.538137,1.29364565 2.084339,4.89237495 2.575525,5.99444215 1.798647,4.0355956 4.359709,9.0892346 8.732162,17.2308146 0.439741,0.818804 0.792397,1.495848 0.783683,1.504544 -0.0087,0.0087 -0.117507,-0.04364 -0.24176,-0.116306 -0.531555,-0.310861 -1.660549,-0.794459 -2.525579,-1.081818 -0.526694,-0.174964 -1.543189,-0.465489 -1.562221,-0.446499 -0.008,0.0079 0.09497,0.07415 0.228806,0.147035 1.727044,0.940532 2.78958,1.663757 4.552968,3.099016 l 0.780013,0.634868 1.316194,2.432332 c 0.723907,1.337784 1.309526,2.43899 1.301373,2.447124 -0.0081,0.0081 -0.440618,-0.224552 -0.961036,-0.517084 -4.525431,-2.54378 -7.972592,-4.020047 -10.93255,-4.681924 -0.300596,-0.06722 -0.55309,-0.128751 -0.561099,-0.136743 -0.008,-0.008 8.23e-4,-0.08469 0.01962,-0.170447 0.161801,-0.737927 0.206493,-2.111126 0.09655,-2.966366 -0.233958,-1.819845 -0.988149,-3.41221 -1.994619,-4.211346 -0.301278,-0.239215 -0.696241,-0.446505 -1.020837,-0.535772 -0.327638,-0.09011 -0.883715,-0.09896 -1.196502,-0.01906 -0.529093,0.135161 -1.128934,0.526644 -1.532166,0.999963 -1.062774,1.247495 -1.61746,3.194476 -1.510236,5.301016 0.02373,0.46602 0.125646,1.247369 0.195351,1.497558 0.02645,0.09491 0.06962,0.07902 -0.60983,0.224389 C 9.0100021,27.410143 5.3314004,28.990207 0.68156043,31.630432 0.32358461,31.833694 0.02104912,32 0.00925938,32 c -0.0117898,0 -0.0124002,-0.0235 -0.001357,-0.05222 z"
     id="path2" />
</svg>
