<?xml version="1.0" encoding="UTF-8" standalone="no"?>
<!-- Uploaded to: SVG Repo, www.svgrepo.com, Generator: SVG Repo Mixer Tools -->

<svg
   fill="#000000"
   height="800px"
   width="800px"
   version="1.1"
   id="Layer_1"
   viewBox="0 0 305 305"
   xml:space="preserve"
   sodipodi:docname="chrome.svg"
   inkscape:version="1.3.2 (091e20ef0f, 2023-11-25, custom)"
   xmlns:inkscape="http://www.inkscape.org/namespaces/inkscape"
   xmlns:sodipodi="http://sodipodi.sourceforge.net/DTD/sodipodi-0.dtd"
   xmlns="http://www.w3.org/2000/svg"
   xmlns:svg="http://www.w3.org/2000/svg"><defs
   id="defs1" /><sodipodi:namedview
   id="namedview1"
   pagecolor="#ffffff"
   bordercolor="#000000"
   borderopacity="0.25"
   inkscape:showpageshadow="2"
   inkscape:pageopacity="0.0"
   inkscape:pagecheckerboard="0"
   inkscape:deskcolor="#d1d1d1"
   inkscape:zoom="1.19"
   inkscape:cx="399.57983"
   inkscape:cy="400"
   inkscape:window-width="1920"
   inkscape:window-height="1166"
   inkscape:window-x="0"
   inkscape:window-y="0"
   inkscape:window-maximized="1"
   inkscape:current-layer="Layer_1" />
<g
   id="XMLID_16_">
	<path
   id="XMLID_17_"
   d="M95.506,152.511c0,31.426,25.567,56.991,56.994,56.991c31.425,0,56.99-25.566,56.99-56.991   c0-31.426-25.565-56.993-56.99-56.993C121.073,95.518,95.506,121.085,95.506,152.511z" />
	<path
   id="XMLID_18_"
   d="M283.733,77.281c0.444-0.781,0.436-1.74-0.023-2.513c-13.275-22.358-32.167-41.086-54.633-54.159   C205.922,7.134,179.441,0.012,152.5,0.012c-46.625,0-90.077,20.924-119.215,57.407c-0.643,0.804-0.727,1.919-0.212,2.81   l42.93,74.355c0.45,0.78,1.28,1.25,2.164,1.25c0.112,0,0.226-0.008,0.339-0.023c1.006-0.137,1.829-0.869,2.083-1.852   c8.465-32.799,38.036-55.706,71.911-55.706c2.102,0,4.273,0.096,6.455,0.282c0.071,0.007,0.143,0.01,0.214,0.01H281.56   C282.459,78.545,283.289,78.063,283.733,77.281z" />
	<path
   id="XMLID_19_"
   d="M175.035,224.936c-0.621-0.803-1.663-1.148-2.646-0.876c-6.457,1.798-13.148,2.709-19.889,2.709   c-28.641,0-55.038-16.798-67.251-42.794c-0.03-0.064-0.063-0.126-0.098-0.188L23.911,77.719c-0.446-0.775-1.272-1.25-2.165-1.25   c-0.004,0-0.009,0-0.013,0c-0.898,0.005-1.725,0.49-2.165,1.272C6.767,100.456,0,126.311,0,152.511   c0,36.755,13.26,72.258,37.337,99.969c23.838,27.435,56.656,45.49,92.411,50.84c0.124,0.019,0.248,0.027,0.371,0.027   c0.883,0,1.713-0.47,2.164-1.25l42.941-74.378C175.732,226.839,175.657,225.739,175.035,224.936z" />
	<path
   id="XMLID_20_"
   d="M292.175,95.226h-85.974c-1.016,0-1.931,0.615-2.314,1.555c-0.384,0.94-0.161,2.02,0.564,2.73   c14.385,14.102,22.307,32.924,22.307,53c0,15.198-4.586,29.824-13.263,42.298c-0.04,0.058-0.077,0.117-0.112,0.178l-61.346,106.252   c-0.449,0.778-0.446,1.737,0.007,2.513c0.449,0.767,1.271,1.237,2.158,1.237c0.009,0,0.019,0,0.028,0   c40.37-0.45,78.253-16.511,106.669-45.222C289.338,231.032,305,192.941,305,152.511c0-19.217-3.532-37.956-10.498-55.698   C294.126,95.855,293.203,95.226,292.175,95.226z" />
</g>
<path
   style="fill:#2e2d2d;stroke-width:0.840336;fill-opacity:1"
   d="M 201.37637,353.9916 C 198.4602,351.33908 86.554622,157.05313 86.554622,154.6427 c 0,-5.27924 33.574998,-41.31187 55.892748,-59.983994 49.91402,-41.760521 106.64409,-70.090372 168.57387,-84.182382 63.58187,-14.4679404 131.39185,-13.0034098 194.09987,4.192084 96.86365,26.561491 179.21593,87.676542 233.27979,173.120952 3.37204,5.3293 6.13232,10.55766 6.13395,11.61858 0.002,1.06093 -0.94071,2.87263 -2.09409,4.026 l -2.09704,2.09705 -178.78531,-0.0862 c -192.97244,-0.093 -183.84977,-0.28263 -204.83572,4.25772 -21.50597,4.65285 -45.95774,15.12245 -64.92977,27.80122 -37.75581,25.2317 -67.05063,64.91817 -78.798,106.74974 -2.27553,8.10304 -4.68682,11.62885 -7.9529,11.62885 -0.87283,0 -2.52236,-0.85084 -3.66565,-1.89075 z"
   id="path1"
   transform="scale(0.38125)" /><path
   style="fill:#2e2d2d;fill-opacity:1;stroke-width:0.840336"
   d="M 330.67227,793.58826 C 261.5571,781.27811 197.90268,751.44779 142.43697,705.37571 130.66543,695.59777 103.53339,668.32708 93.613303,656.30252 39.721167,590.97758 8.6161218,514.9348 1.6797634,431.55178 0.56232723,418.11892 0.55686597,381.78247 1.6703375,368.83597 6.1674605,316.54721 19.507309,268.21985 41.779453,223.52941 c 8.103196,-16.25957 10.048666,-19.73683 11.871398,-21.21849 2.014181,-1.63728 5.545705,-1.2396 7.462487,0.84034 1.970391,2.13811 158.629172,273.34138 166.107122,287.55996 23.31915,44.33909 64.05745,78.75114 111.87567,94.50252 34.76565,11.45186 70.88742,12.99948 106.58419,4.56657 9.11242,-2.1527 9.12893,-2.15343 11.34454,-0.50683 4.82075,3.58269 7.01426,-0.6893 -53.67278,104.53091 -31.02159,53.78574 -57.34469,98.64309 -58.49578,99.683 -2.45905,2.22157 -2.28442,2.22032 -14.18403,0.10087 z"
   id="path2"
   transform="scale(0.38125)" /><path
   style="fill:#2e2d2d;fill-opacity:1;stroke-width:0.840336"
   d="m 400.49941,797.63463 c -1.19904,-1.19904 -2.18008,-2.96489 -2.18008,-3.92409 0,-1.69586 159.24718,-278.32 166.34075,-288.94619 5.08822,-7.62218 12.81274,-22.68017 16.8176,-32.78385 18.02783,-45.48152 18.05286,-98.60333 0.0677,-143.74691 -9.01729,-22.63386 -22.31979,-43.65299 -38.26714,-60.4655 -3.78955,-3.99514 -7.34629,-8.12901 -7.90384,-9.18639 -1.28782,-2.44226 -0.56599,-4.71633 2.18354,-6.87911 C 539.70762,250.01166 540.50474,250 653.93303,250 h 114.21059 l 1.89882,1.89881 c 2.29,2.29 8.55753,19.09542 13.55158,36.33648 7.32459,25.28684 12.55675,53.73247 14.69879,79.9126 1.15038,14.06018 1.15891,49.84321 0.0151,63.41089 -7.43919,88.24293 -40.83785,166.72289 -99.27377,233.27285 -10.2117,11.62964 -31.14054,31.92303 -43.65568,42.3302 -34.57758,28.75355 -74.37455,51.82062 -116.75807,67.67516 -37.66838,14.09074 -80.07212,22.51665 -122.78485,24.39819 l -13.15605,0.57953 z"
   id="path3"
   transform="scale(0.38125)" /><path
   style="fill:#2e2d2d;fill-opacity:1;stroke-width:0.840336"
   d="m 384.03361,548.22834 c -50.07934,-5.66773 -94.7472,-36.86013 -117.19836,-81.84179 -6.25748,-12.53707 -10.46197,-24.73726 -13.22497,-38.37496 -1.6655,-8.22061 -1.92961,-12.05458 -1.92961,-28.01159 0,-15.99666 0.26197,-19.78098 1.94442,-28.08901 9.49474,-46.88541 39.83936,-85.9042 82.70034,-106.34066 46.98951,-22.40498 101.73366,-18.65813 145.0523,9.92781 10.5254,6.94571 13.23756,9.14925 22.71228,18.45303 21.98984,21.59309 35.94638,47.3315 42.23963,77.89757 1.73955,8.44898 1.98969,11.98798 1.98969,28.15126 0,15.99666 -0.26197,19.78098 -1.94442,28.08901 -9.49488,46.88608 -39.64183,85.71832 -82.50936,106.28016 -24.91728,11.95182 -53.23978,16.86873 -79.83194,13.85917 z"
   id="path4"
   transform="scale(0.38125)" /></svg>
