<?xml version="1.0" encoding="UTF-8" standalone="no"?>
<!-- Created with Inkscape (http://www.inkscape.org/) -->

<svg
   version="1.0"
   width="390"
   height="390"
   id="svg3"
   sodipodi:docname="inkscape.svg"
   inkscape:version="1.3.2 (091e20ef0f, 2023-11-25, custom)"
   xmlns:inkscape="http://www.inkscape.org/namespaces/inkscape"
   xmlns:sodipodi="http://sodipodi.sourceforge.net/DTD/sodipodi-0.dtd"
   xmlns="http://www.w3.org/2000/svg"
   xmlns:svg="http://www.w3.org/2000/svg">
  <defs
     id="defs3" />
  <sodipodi:namedview
     id="namedview3"
     pagecolor="#ffffff"
     bordercolor="#000000"
     borderopacity="0.25"
     inkscape:showpageshadow="2"
     inkscape:pageopacity="0.0"
     inkscape:pagecheckerboard="0"
     inkscape:deskcolor="#d1d1d1"
     inkscape:zoom="0.62307692"
     inkscape:cx="195"
     inkscape:cy="194.19753"
     inkscape:window-width="1920"
     inkscape:window-height="1166"
     inkscape:window-x="0"
     inkscape:window-y="0"
     inkscape:window-maximized="1"
     inkscape:current-layer="svg3" />
  <path
     style="fill:#2e2d2d;stroke-width:1.60494"
     d="m 180.55556,371.23033 c -4.16137,-2.35976 -5.27749,-4.07536 -7.22666,-11.10807 -3.01424,-10.87562 -9.60607,-15.19395 -29.05344,-19.03304 -9.54493,-1.88425 -15.8804,-6.30749 -15.8804,-11.08722 0,-1.5937 3.61111,-7.02425 8.02469,-12.0679 12.00174,-13.71507 10.81924,-19.29304 -5.61728,-26.49726 -2.64815,-1.16069 -16.18524,-5.98599 -30.08242,-10.72288 -37.211097,-12.68351 -46.519935,-18.09822 -40.237791,-23.40526 1.382526,-1.16793 9.464596,-5.73463 17.960157,-10.14821 13.232443,-6.87446 15.446473,-8.5967 15.446473,-12.01541 0,-5.26093 -3.612723,-6.87778 -30.857424,-13.80997 -37.926493,-9.65008 -47.004056,-14.99691 -46.962946,-27.66196 0.04076,-12.5559 7.174227,-21.08163 81.030246,-96.845213 79.601475,-81.657435 78.606905,-80.852049 98.425855,-79.703938 6.71819,0.389185 13.40178,1.94175 17.93217,4.165561 5.27909,2.591316 27.07341,23.886735 81.00478,79.15043 40.58042,41.58291 75.56199,78.22395 77.73684,81.42454 2.51897,3.70699 4.20436,8.83488 4.64325,14.12726 0.65557,7.90536 0.36687,8.65745 -5.95689,15.51791 -9.15372,9.93061 -22.96575,16.71596 -59.52675,29.24327 -34.07903,11.67691 -43.80505,16.15295 -44.65172,20.54929 -0.7983,4.14525 1.4925,6.26031 15.7581,14.54917 7.02355,4.08097 13.93334,9.19527 15.35507,11.36513 2.42652,3.70333 2.36099,4.34373 -1.06898,10.44656 -4.77548,8.4968 -7.83664,10.32911 -25.60084,15.32372 -17.73425,4.98619 -25.17806,8.59076 -33.76902,16.35217 -8.00467,7.23173 -7.7725,11.13563 0.9527,16.01946 8.41299,4.70908 8.18768,8.15133 -0.93255,14.24668 -15.85658,10.59749 -47.31306,17.03053 -56.84522,11.62518 z m 21.45019,-110.57064 c 1.97926,-1.84396 3.33469,-4.14456 3.01205,-5.11245 -0.47066,-1.41202 -47.29283,-12.09284 -73.41286,-16.74653 -5.29537,-0.94345 -5.47932,-0.83237 -3.20988,1.93841 4.31232,5.26492 34.97064,17.54159 55.37037,22.17225 8.04049,1.82516 14.75389,0.99641 18.24032,-2.25168 z m -1.51012,-140.28932 c 9.04938,-5.73765 17.19157,-10.4321 18.09375,-10.4321 0.90217,0 5.84381,2.24043 10.98139,4.97874 5.1376,2.73831 9.9926,4.57607 10.78893,4.08392 0.79632,-0.49215 2.36547,-7.06261 3.487,-14.60102 1.40936,-9.47318 2.60772,-13.367137 3.88016,-12.608321 1.01257,0.603839 6.68889,4.993276 12.61403,9.754301 5.92514,4.76103 11.52236,8.19327 12.43827,7.62721 0.91591,-0.56606 1.66528,-3.9756 1.66528,-7.57675 0,-6.322446 -0.97939,-7.546879 -28.48765,-35.61516 -15.66821,-15.987185 -30.84409,-30.81451 -33.72417,-32.94961 -3.54746,-2.629848 -8.09054,-4.118678 -14.08474,-4.615764 -15.88154,-1.317021 -19.61339,1.168556 -52.7779,35.152443 -32.44827,33.249949 -36.1926,38.968491 -31.26805,47.754371 2.32306,4.14455 2.75796,4.2423 20.83075,4.68214 l 18.45817,0.44921 8.76284,-15.43964 8.76284,-15.439648 5.56635,22.613888 c 3.0615,12.43764 6.01478,22.61389 6.56285,22.61389 0.54805,0 8.40052,-4.69445 17.4499,-10.4321 z"
     id="path4" />
  <path
     style="fill:#2e2d2d;stroke-width:1.60494"
     d="m 333.82716,297.74757 c -15.92011,-2.28907 -17.89193,-4.85564 -9.88324,-12.86433 5.56178,-5.56178 16.07328,-8.62349 24.63824,-7.17645 7.16134,1.2099 17.34377,9.17152 17.34377,13.56105 0,5.49695 -16.19572,8.76635 -32.09877,6.47973 z"
     id="path5" />
  <path
     style="fill:#2e2d2d;stroke-width:1.60494"
     d="m 314.5679,327.10465 c -7.73328,-2.95069 -10.07599,-9.69637 -5.59114,-16.09938 2.0774,-2.9659 3.1056,-3.24011 7.02555,-1.87361 7.95425,2.77287 14.71168,12.45813 10.89949,15.62197 -2.62231,2.17632 -9.40389,3.46899 -12.3339,2.35102 z"
     id="path6" />
  <path
     style="fill:#2e2d2d;stroke-width:1.60494"
     d="m 92.000005,327.80864 c -5.051506,-5.61127 -5.618949,-7.30081 -3.673129,-10.93661 4.016595,-7.50507 23.247884,-12.00256 32.770444,-7.6638 5.35221,2.43863 5.15642,4.83344 -0.96519,11.80556 -9.46267,10.77739 -21.852782,13.77001 -28.132125,6.79485 z"
     id="path7" />
</svg>
