<?xml version="1.0" encoding="UTF-8" standalone="no"?>
<svg
   height="800"
   width="800"
   viewBox="-33.4974 -55.829 193.54053 334.974"
   version="1.1"
   id="svg1"
   sodipodi:docname="spotify.svg"
   inkscape:version="1.3.2 (091e20ef0f, 2023-11-25, custom)"
   xmlns:inkscape="http://www.inkscape.org/namespaces/inkscape"
   xmlns:sodipodi="http://sodipodi.sourceforge.net/DTD/sodipodi-0.dtd"
   xmlns="http://www.w3.org/2000/svg"
   xmlns:svg="http://www.w3.org/2000/svg">
  <defs
     id="defs1" />
  <sodipodi:namedview
     id="namedview1"
     pagecolor="#ffffff"
     bordercolor="#000000"
     borderopacity="0.25"
     inkscape:showpageshadow="2"
     inkscape:pageopacity="0.0"
     inkscape:pagecheckerboard="0"
     inkscape:deskcolor="#d1d1d1"
     inkscape:zoom="0.93619046"
     inkscape:cx="568.79452"
     inkscape:cy="456.10377"
     inkscape:window-width="1920"
     inkscape:window-height="1166"
     inkscape:window-x="0"
     inkscape:window-y="0"
     inkscape:window-maximized="1"
     inkscape:current-layer="svg1" />
  <path
     style="fill:#2e2d2d;fill-opacity:1;stroke-width:0.673323"
     d="M 46.416456,278.71355 C 6.3968313,274.1465 -28.181009,257.47369 -56.097409,229.28321 -78.31333,206.84918 -93.570183,178.91334 -100.42109,148.12499 c -2.73709,-12.30066 -3.79305,-22.4214 -3.79305,-36.35411 0,-18.836202 2.24801,-33.85722 7.546795,-50.426879 15.510419,-48.50226 51.336721,-86.835937 98.8371906,-105.754529 31.4664674,-12.53253 68.9406484,-14.875292 102.3827444,-6.400628 46.18149,11.702974 86.35003,43.8401859 108.00151,86.4076 12.73854,25.044293 18.16115,47.633116 18.20543,75.837826 0.0318,20.24902 -2.22741,34.46446 -8.47618,53.33454 -7.84796,23.69929 -20.7718,44.92292 -38.55448,63.31445 -26.19405,27.09088 -58.47327,43.77841 -96.018036,49.6388 -8.275884,1.2918 -33.381,1.89458 -41.294378,0.99149 z m 90.530724,-88.9726 c 6.76993,-3.80381 6.96752,-13.36217 0.37492,-18.13642 -7.20183,-5.21546 -27.28861,-14.20424 -41.057616,-18.37317 -30.420432,-9.21059 -67.123787,-10.64301 -105.082378,-4.10101 -19.235089,3.31507 -22.322637,4.44642 -24.786967,9.08249 -1.669173,3.14017 -1.571806,6.58999 0.285066,10.10037 2.893551,5.47018 7.133172,6.42013 18.177337,4.07291 41.163391,-8.74853 79.82049,-7.43326 111.881679,3.80668 6.482089,2.27247 20.075129,8.56396 28.009779,12.96422 4.54392,2.51989 8.42216,2.70555 12.19818,0.58393 z m 17.94983,-44.00438 c 7.13734,-2.98129 10.22476,-11.25853 6.8212,-18.28728 -1.70713,-3.52546 -3.52886,-4.9463 -12.72606,-9.92568 C 117.81355,100.64343 81.783946,91.504258 42.254927,90.448927 16.038763,89.74901 -9.1028134,92.716962 -30.222507,99.004848 c -7.543042,2.245762 -11.363475,6.740312 -11.363475,13.368622 0,5.85984 2.512729,9.83732 7.744337,12.25878 3.476978,1.60932 6.313418,1.59157 12.123724,-0.0759 7.019212,-2.01431 19.1245005,-4.47297 28.6182497,-5.81255 11.9464783,-1.68566 43.8425933,-1.68963 56.2306423,-0.008 30.313996,4.11746 53.418379,11.58506 78.340299,25.32046 5.51855,3.04148 9.0939,3.48865 13.42574,1.67922 z m 22.83782,-52.201923 c 7.82904,-3.788873 11.09531,-13.187753 7.36563,-21.195078 -2.0438,-4.387879 -4.64209,-6.474531 -14.37255,-11.542425 C 133.64972,41.485819 83.58432,31.352685 31.14348,32.545553 c -24.8107587,0.564364 -44.793574,3.028553 -64.207295,7.917735 -10.34067,2.604222 -12.977938,3.782403 -16.016878,7.155448 -3.22324,3.577611 -4.206522,6.745995 -3.772212,12.15502 0.412107,5.132464 2.543994,8.695853 7.130468,11.918399 2.61224,1.835417 3.404357,2.035703 8.062249,2.038487 3.719203,0.003 7.449155,-0.610882 13.32238,-2.189793 19.1881698,-5.158406 40.27573,-7.206842 69.102734,-6.7126 45.5278,0.780591 80.929254,8.797931 113.204884,25.637431 7.86416,4.10306 8.92022,4.474596 12.71839,4.474596 2.82392,0 5.06647,-0.447339 7.04663,-1.405629 z"
     id="path2" />
</svg>
