<?xml version="1.0" encoding="UTF-8" standalone="no"?>
<svg
   height="800"
   width="800"
   viewBox="-33.4974 -55.829 193.54053 334.974"
   version="1.1"
   id="svg1"
   sodipodi:docname="spotify_white.svg"
   inkscape:version="1.3.2 (091e20ef0f, 2023-11-25, custom)"
   xmlns:inkscape="http://www.inkscape.org/namespaces/inkscape"
   xmlns:sodipodi="http://sodipodi.sourceforge.net/DTD/sodipodi-0.dtd"
   xmlns="http://www.w3.org/2000/svg"
   xmlns:svg="http://www.w3.org/2000/svg">
  <defs
     id="defs1" />
  <sodipodi:namedview
     id="namedview1"
     pagecolor="#ffffff"
     bordercolor="#000000"
     borderopacity="0.25"
     inkscape:showpageshadow="2"
     inkscape:pageopacity="0.0"
     inkscape:pagecheckerboard="0"
     inkscape:deskcolor="#d1d1d1"
     inkscape:zoom="0.93619046"
     inkscape:cx="569.86268"
     inkscape:cy="456.10377"
     inkscape:window-width="1920"
     inkscape:window-height="1164"
     inkscape:window-x="0"
     inkscape:window-y="0"
     inkscape:window-maximized="1"
     inkscape:current-layer="svg1" />
  <path
     style="fill:#ffffff;stroke-width:0.448607"
     d="m 41.227317,278.38493 c -33.1912543,-5.18986 -60.182291,-17.05157 -84.626025,-37.1905 -5.397232,-4.44673 -15.537518,-14.42141 -20.533964,-20.19862 -22.439354,-25.94582 -36.379548,-58.31193 -39.807878,-92.42534 -0.71732,-7.13749 -0.59726,-27.37568 0.20784,-35.039638 5.316734,-50.61093 34.581717,-96.9384056 78.53005,-124.315759 24.92939926,-15.52961 52.648322,-23.967807 81.884836,-24.92738 10.06887,-0.330468 20.148655,0.04763 27.973677,1.049448 31.871477,4.080199 60.993447,16.950212 86.665107,38.300351 6.23371,5.184332 17.45362,16.68051701 22.77068,23.3313811 19.83771,24.8140179 32.08329,53.7080629 35.85344,84.5979059 0.811,6.644817 0.82262,34.556391 0.017,41.040451 -0.88937,7.15889 -2.96283,16.98144 -5.26079,24.92195 -7.90978,27.33193 -21.47661,50.6762 -41.26595,71.00578 -24.29602,24.95929 -53.22727,40.90559 -86.820364,47.85353 -10.784857,2.2306 -14.026118,2.49835 -32.529589,2.68717 -15.662805,0.15983 -18.081961,0.0873 -23.05815,-0.69073 z m 93.980963,-87.2317 c 5.83514,-1.74027 8.71541,-7.53863 6.8449,-13.77967 -1.25449,-4.18569 -6.69921,-8.10086 -19.38087,-13.93635 -23.862007,-10.98012 -43.430566,-15.97189 -70.052633,-17.86983 -8.974318,-0.63979 -31.155619,-0.26352 -40.381557,0.68503 -15.6525142,1.60926 -34.802436,4.93901 -40.360242,7.01773 -7.213473,2.69798 -9.12965,10.65912 -4.223389,17.54696 2.57732,3.61826 7.391762,3.90264 21.252501,1.25534 26.855712,-5.12927 50.89719,-6.21495 73.583738,-3.32295 12.569976,1.60238 27.919965,5.34187 37.240776,9.07243 5.861816,2.34612 18.250466,8.11576 23.094056,10.75535 5.82427,3.17401 8.5065,3.732 12.38272,2.57596 z m 21.11869,-45.45755 c 4.31485,-2.20569 7.34202,-7.11321 7.34202,-11.90254 0,-6.78294 -2.74881,-10.11022 -13.01184,-15.75011 -17.56076,-9.65024 -37.72992,-17.16545 -58.328927,-21.733873 -39.305895,-8.717218 -85.9730373,-8.022768 -120.157458,1.788074 -5.716079,1.640495 -8.583496,3.065939 -10.837114,5.387339 -2.19281,2.25877 -3.161962,5.06729 -3.161962,9.1631 0,4.12478 0.971097,6.90633 3.219829,9.2227 4.266604,4.39494 8.897023,5.09347 18.092664,2.72944 21.8721218,-5.62293 35.92334,-7.13185 61.918392,-6.64923 15.392656,0.28578 21.637782,0.84623 33.875652,3.04004 22.25031,3.98867 40.607294,10.22301 61.469714,20.87616 9.68902,4.94757 11.83608,5.63299 15.76522,5.03279 1.1442,-0.17477 2.86041,-0.71653 3.81381,-1.20389 z m 17.57912,-50.744056 c 1.5586,-0.225289 3.67864,-0.843443 4.71119,-1.373668 2.86674,-1.472108 5.92296,-4.722602 7.32683,-7.792554 1.05462,-2.306205 1.25548,-3.348763 1.26705,-6.576453 0.0127,-3.549643 -0.11316,-4.092434 -1.68753,-7.27687 -1.95521,-3.954729 -4.04056,-5.829875 -10.52125,-9.460658 C 169.91804,59.62293 158.56778,54.329182 152.00321,51.744632 117.31942,38.089212 76.484433,31.445923 32.428898,32.29154 c -26.1667583,0.502253 -45.034412,2.732416 -64.834846,7.663488 -12.477713,3.107429 -15.177528,4.448199 -18.484069,9.179458 -2.969469,4.248955 -3.382684,10.964046 -0.995633,16.179876 1.315025,2.873401 4.651722,6.216737 7.654745,7.669971 3.096593,1.498524 10.648169,1.051465 19.452587,-1.151609 18.4704304,-4.621729 31.8031338,-6.290457 54.290769,-6.795049 30.39206,-0.681961 59.598267,2.255043 83.346079,8.381357 16.15471,4.167493 29.48962,9.257056 45.99688,17.555717 8.55128,4.298979 10.06154,4.698042 15.05068,3.976875 z"
     id="path1" />
</svg>
