<?xml version="1.0" encoding="UTF-8" standalone="no"?>
<!-- Uploaded to: SVG Repo, www.svgrepo.com, Generator: SVG Repo Mixer Tools -->

<svg
   fill="#000000"
   width="800px"
   height="800px"
   viewBox="0 0 32 32"
   version="1.1"
   id="svg1"
   sodipodi:docname="code.svg"
   inkscape:version="1.3.2 (091e20ef0f, 2023-11-25, custom)"
   xmlns:inkscape="http://www.inkscape.org/namespaces/inkscape"
   xmlns:sodipodi="http://sodipodi.sourceforge.net/DTD/sodipodi-0.dtd"
   xmlns="http://www.w3.org/2000/svg"
   xmlns:svg="http://www.w3.org/2000/svg">
  <defs
     id="defs1" />
  <sodipodi:namedview
     id="namedview1"
     pagecolor="#ffffff"
     bordercolor="#000000"
     borderopacity="0.25"
     inkscape:showpageshadow="2"
     inkscape:pageopacity="0.0"
     inkscape:pagecheckerboard="0"
     inkscape:deskcolor="#d1d1d1"
     inkscape:zoom="0.30375"
     inkscape:cx="400"
     inkscape:cy="398.35391"
     inkscape:window-width="1920"
     inkscape:window-height="1166"
     inkscape:window-x="0"
     inkscape:window-y="0"
     inkscape:window-maximized="1"
     inkscape:current-layer="svg1" />
  <path
     d="M30.865 3.448l-6.583-3.167c-0.766-0.37-1.677-0.214-2.276 0.385l-12.609 11.505-5.495-4.167c-0.51-0.391-1.229-0.359-1.703 0.073l-1.76 1.604c-0.583 0.526-0.583 1.443-0.005 1.969l4.766 4.349-4.766 4.349c-0.578 0.526-0.578 1.443 0.005 1.969l1.76 1.604c0.479 0.432 1.193 0.464 1.703 0.073l5.495-4.172 12.615 11.51c0.594 0.599 1.505 0.755 2.271 0.385l6.589-3.172c0.693-0.333 1.13-1.031 1.13-1.802v-21.495c0-0.766-0.443-1.469-1.135-1.802zM24.005 23.266l-9.573-7.266 9.573-7.266z"
     id="path1" />
  <path
     style="fill:#2e2d2d;stroke-width:3.29218"
     d="M 564.2263,791.01979 C 560.3944,788.71612 485.81811,721.64609 398.5012,641.97531 311.18427,562.30453 237.88789,496.68563 235.62035,496.15552 c -2.26754,-0.5301 -14.3579,6.93149 -26.86746,16.58137 -12.50956,9.64984 -44.73072,34.15766 -71.60258,54.46176 C 76.363898,613.1283 76.384507,613.12497 41.449633,582.65659 10.047735,555.26953 3.2921811,546.50324 3.2921811,533.14196 c 0,-14.2538 4.8813689,-19.70199 72.0410929,-80.40665 30.994686,-28.01561 56.353966,-51.72079 56.353966,-52.67816 0,-0.95736 -26.1047,-25.43595 -58.01045,-54.39684 C 41.771042,316.6994 12.882153,289.47099 9.4792602,285.15273 1.3548672,274.8429 1.615413,258.16366 10.068728,247.41701 c 3.727101,-4.73824 17.848508,-18.27137 31.380905,-30.07361 36.039444,-31.4317 31.792296,-32.613 119.314257,33.18602 39.9768,30.05456 74.09616,54.12863 75.82081,53.49794 1.72465,-0.63068 74.52801,-66.33189 161.78524,-146.00267 87.25725,-79.670781 161.83865,-146.655321 165.7365,-148.8545323 3.89784,-2.1992115 13.07344,-4.0510634 20.39022,-4.1152263 12.94087,-0.1134825 25.68543,5.5404016 174.35108,77.3475706 16.22831,7.838456 25.4799,14.754499 31.27572,23.380238 l 8.23045,12.24912 1.00774,266.91 c 0.55423,146.80049 0.0573,274.84764 -1.10433,284.54923 -3.44316,28.75628 -10.96774,34.4187 -108.54539,81.68363 C 600.1844,794.54031 580.48626,800.795 564.2263,791.01979 Z m 37.47105,-483.32775 -0.8743,-92.30796 -120.87632,91.48491 C 413.46476,357.18571 359.07045,399.09465 359.07045,400 c 0,0.90535 54.39431,42.81429 120.87628,93.131 l 120.87632,91.48493 0.8743,-92.30798 c 0.48089,-50.76938 0.48089,-133.84652 0,-184.61591 z"
     id="path2"
     transform="scale(0.04)" />
</svg>
