<?xml version="1.0" encoding="UTF-8" standalone="no"?>
<!-- Uploaded to: SVG Repo, www.svgrepo.com, Generator: SVG Repo Mixer Tools -->

<svg
   fill="#000000"
   width="800px"
   height="800px"
   viewBox="0 0 32 32"
   version="1.1"
   id="svg1"
   sodipodi:docname="code.svg"
   inkscape:version="1.4 (e7c3feb100, 2024-10-09)"
   xmlns:inkscape="http://www.inkscape.org/namespaces/inkscape"
   xmlns:sodipodi="http://sodipodi.sourceforge.net/DTD/sodipodi-0.dtd"
   xmlns="http://www.w3.org/2000/svg"
   xmlns:svg="http://www.w3.org/2000/svg">
  <defs
     id="defs1" />
  <sodipodi:namedview
     id="namedview1"
     pagecolor="#ffffff"
     bordercolor="#000000"
     borderopacity="0.25"
     inkscape:showpageshadow="2"
     inkscape:pageopacity="0.0"
     inkscape:pagecheckerboard="0"
     inkscape:deskcolor="#d1d1d1"
     inkscape:zoom="0.30375"
     inkscape:cx="398.35391"
     inkscape:cy="400"
     inkscape:window-width="1920"
     inkscape:window-height="1160"
     inkscape:window-x="0"
     inkscape:window-y="0"
     inkscape:window-maximized="1"
     inkscape:current-layer="svg1" />
  <path
     d="M30.865 3.448l-6.583-3.167c-0.766-0.37-1.677-0.214-2.276 0.385l-12.609 11.505-5.495-4.167c-0.51-0.391-1.229-0.359-1.703 0.073l-1.76 1.604c-0.583 0.526-0.583 1.443-0.005 1.969l4.766 4.349-4.766 4.349c-0.578 0.526-0.578 1.443 0.005 1.969l1.76 1.604c0.479 0.432 1.193 0.464 1.703 0.073l5.495-4.172 12.615 11.51c0.594 0.599 1.505 0.755 2.271 0.385l6.589-3.172c0.693-0.333 1.13-1.031 1.13-1.802v-21.495c0-0.766-0.443-1.469-1.135-1.802zM24.005 23.266l-9.573-7.266 9.573-7.266z"
     id="path1" />
  <path
     style="fill:#2e2d2d;stroke-width:3.29218"
     d="M 564.2263,791.01979 C 560.3944,788.71612 485.81811,721.64609 398.5012,641.97531 311.18427,562.30453 237.88789,496.68563 235.62035,496.15552 c -2.26754,-0.5301 -14.3579,6.93149 -26.86746,16.58137 -12.50956,9.64984 -44.73072,34.15766 -71.60258,54.46176 C 76.363898,613.1283 76.384507,613.12497 41.449633,582.65659 10.047735,555.26953 3.2921811,546.50324 3.2921811,533.14196 c 0,-14.2538 4.8813689,-19.70199 72.0410929,-80.40665 30.994686,-28.01561 56.353966,-51.72079 56.353966,-52.67816 0,-0.95736 -26.1047,-25.43595 -58.01045,-54.39684 C 41.771042,316.6994 12.882153,289.47099 9.4792602,285.15273 1.3548672,274.8429 1.615413,258.16366 10.068728,247.41701 c 3.727101,-4.73824 17.848508,-18.27137 31.380905,-30.07361 36.039444,-31.4317 31.792296,-32.613 119.314257,33.18602 39.9768,30.05456 74.09616,54.12863 75.82081,53.49794 1.72465,-0.63068 74.52801,-66.33189 161.78524,-146.00267 87.25725,-79.670781 161.83865,-146.655321 165.7365,-148.8545323 3.89784,-2.1992115 13.07344,-4.0510634 20.39022,-4.1152263 12.94087,-0.1134825 25.68543,5.5404016 174.35108,77.3475706 16.22831,7.838456 25.4799,14.754499 31.27572,23.380238 l 8.23045,12.24912 1.00774,266.91 c 0.55423,146.80049 0.0573,274.84764 -1.10433,284.54923 -3.44316,28.75628 -10.96774,34.4187 -108.54539,81.68363 C 600.1844,794.54031 580.48626,800.795 564.2263,791.01979 Z m 37.47105,-483.32775 -0.8743,-92.30796 -120.87632,91.48491 C 413.46476,357.18571 359.07045,399.09465 359.07045,400 c 0,0.90535 54.39431,42.81429 120.87628,93.131 l 120.87632,91.48493 0.8743,-92.30798 c 0.48089,-50.76938 0.48089,-133.84652 0,-184.61591 z"
     id="path2"
     transform="scale(0.04)" />
  <path
     style="fill:#efefef;stroke-width:3.29218"
     d="M 493.17406,725.10288 C 430.28303,668.44342 268.44798,522.8907 244.31547,501.28207 234.109,492.14305 231.49249,493.54634 165.43159,543.58858 76.724547,610.78561 77.655022,610.46183 47.084497,584.771 9.2239987,552.95381 1.1141389,540.23638 7.9773975,523.44553 10.158914,518.10848 38.396955,489.24688 70.728599,459.30861 103.06024,429.37034 130.07099,403.20267 130.75247,401.15822 131.43396,399.11374 103.77492,371.21017 69.287951,339.15026 8.7171226,282.84213 6.5843621,280.42603 6.5843621,268.11631 c 0,-14.7154 9.6488549,-27.35097 40.5001349,-53.03661 13.126779,-10.92887 22.074802,-15.90275 28.60908,-15.90275 10.350347,0 36.807153,17.13969 111.960743,72.53225 24.44445,18.01697 46.08038,32.7715 48.07984,32.78784 1.99947,0.0163 71.6291,-61.62917 154.73251,-136.99001 C 583.05666,-7.1397472 565.47984,7.0507475 586.84356,8.9636451 c 11.89056,1.0646759 29.4317,7.3254219 56.30163,20.0950679 21.4665,10.201715 41.4665,18.948043 44.44444,19.436286 2.97797,0.488244 6.15523,1.81604 7.06058,2.950654 0.90535,1.134614 19.53804,11.0176 41.40595,21.962189 26.02677,13.026031 43.36787,24.008563 50.20577,31.796478 l 10.44589,11.89722 v 279.88434 c 0,246.20204 -0.6133,281.07028 -5.0962,289.73929 -5.6422,10.91081 -26.61692,25.35562 -64.0396,44.10262 -13.58025,6.80306 -25.18825,13.67763 -25.79559,15.27684 -0.60734,1.59917 -2.4592,2.07018 -4.11523,1.04668 -1.65603,-1.02347 -3.01099,-0.0451 -3.01099,2.17429 0,2.21935 -0.88468,3.15052 -1.96593,2.06926 -1.08125,-1.08128 -13.30347,3.31105 -27.16049,9.76066 -45.56636,21.2085 -71.08692,30.38571 -84.81798,30.50071 -13.01781,0.109 -16.34943,-2.42413 -87.53175,-66.55335 z M 602.46914,400 c 0,-101.39918 -0.98091,-184.36214 -2.17976,-184.36214 -4.85478,0 -241.44164,180.62749 -241.44164,184.33396 0,1.47351 42.59259,35.15618 94.6502,74.8504 C 585.8798,575.76412 597.21123,584.23193 600,584.301 c 1.35802,0.0336 2.46914,-82.90182 2.46914,-184.301 z"
     id="path3"
     transform="scale(0.04)" />
</svg>
