<?xml version="1.0" encoding="UTF-8" standalone="no"?>
<svg
   height="800"
   width="800"
   viewBox="-33.4974 -55.829 193.54053 334.974"
   version="1.1"
   id="svg1"
   sodipodi:docname="spotify.svg"
   inkscape:version="1.4 (e7c3feb100, 2024-10-09)"
   xmlns:inkscape="http://www.inkscape.org/namespaces/inkscape"
   xmlns:sodipodi="http://sodipodi.sourceforge.net/DTD/sodipodi-0.dtd"
   xmlns="http://www.w3.org/2000/svg"
   xmlns:svg="http://www.w3.org/2000/svg">
  <defs
     id="defs1" />
  <sodipodi:namedview
     id="namedview1"
     pagecolor="#ffffff"
     bordercolor="#000000"
     borderopacity="0.25"
     inkscape:showpageshadow="2"
     inkscape:pageopacity="0.0"
     inkscape:pagecheckerboard="0"
     inkscape:deskcolor="#d1d1d1"
     inkscape:zoom="0.93619046"
     inkscape:cx="570.39675"
     inkscape:cy="455.56969"
     inkscape:window-width="1920"
     inkscape:window-height="1160"
     inkscape:window-x="0"
     inkscape:window-y="0"
     inkscape:window-maximized="1"
     inkscape:current-layer="svg1" />
  <path
     style="fill:#2e2d2d;fill-opacity:1;stroke-width:0.673323"
     d="M 46.416456,278.71355 C 6.3968313,274.1465 -28.181009,257.47369 -56.097409,229.28321 -78.31333,206.84918 -93.570183,178.91334 -100.42109,148.12499 c -2.73709,-12.30066 -3.79305,-22.4214 -3.79305,-36.35411 0,-18.836202 2.24801,-33.85722 7.546795,-50.426879 15.510419,-48.50226 51.336721,-86.835937 98.8371906,-105.754529 31.4664674,-12.53253 68.9406484,-14.875292 102.3827444,-6.400628 46.18149,11.702974 86.35003,43.8401859 108.00151,86.4076 12.73854,25.044293 18.16115,47.633116 18.20543,75.837826 0.0318,20.24902 -2.22741,34.46446 -8.47618,53.33454 -7.84796,23.69929 -20.7718,44.92292 -38.55448,63.31445 -26.19405,27.09088 -58.47327,43.77841 -96.018036,49.6388 -8.275884,1.2918 -33.381,1.89458 -41.294378,0.99149 z m 90.530724,-88.9726 c 6.76993,-3.80381 6.96752,-13.36217 0.37492,-18.13642 -7.20183,-5.21546 -27.28861,-14.20424 -41.057616,-18.37317 -30.420432,-9.21059 -67.123787,-10.64301 -105.082378,-4.10101 -19.235089,3.31507 -22.322637,4.44642 -24.786967,9.08249 -1.669173,3.14017 -1.571806,6.58999 0.285066,10.10037 2.893551,5.47018 7.133172,6.42013 18.177337,4.07291 41.163391,-8.74853 79.82049,-7.43326 111.881679,3.80668 6.482089,2.27247 20.075129,8.56396 28.009779,12.96422 4.54392,2.51989 8.42216,2.70555 12.19818,0.58393 z m 17.94983,-44.00438 c 7.13734,-2.98129 10.22476,-11.25853 6.8212,-18.28728 -1.70713,-3.52546 -3.52886,-4.9463 -12.72606,-9.92568 C 117.81355,100.64343 81.783946,91.504258 42.254927,90.448927 16.038763,89.74901 -9.1028134,92.716962 -30.222507,99.004848 c -7.543042,2.245762 -11.363475,6.740312 -11.363475,13.368622 0,5.85984 2.512729,9.83732 7.744337,12.25878 3.476978,1.60932 6.313418,1.59157 12.123724,-0.0759 7.019212,-2.01431 19.1245005,-4.47297 28.6182497,-5.81255 11.9464783,-1.68566 43.8425933,-1.68963 56.2306423,-0.008 30.313996,4.11746 53.418379,11.58506 78.340299,25.32046 5.51855,3.04148 9.0939,3.48865 13.42574,1.67922 z m 22.83782,-52.201923 c 7.82904,-3.788873 11.09531,-13.187753 7.36563,-21.195078 -2.0438,-4.387879 -4.64209,-6.474531 -14.37255,-11.542425 C 133.64972,41.485819 83.58432,31.352685 31.14348,32.545553 c -24.8107587,0.564364 -44.793574,3.028553 -64.207295,7.917735 -10.34067,2.604222 -12.977938,3.782403 -16.016878,7.155448 -3.22324,3.577611 -4.206522,6.745995 -3.772212,12.15502 0.412107,5.132464 2.543994,8.695853 7.130468,11.918399 2.61224,1.835417 3.404357,2.035703 8.062249,2.038487 3.719203,0.003 7.449155,-0.610882 13.32238,-2.189793 19.1881698,-5.158406 40.27573,-7.206842 69.102734,-6.7126 45.5278,0.780591 80.929254,8.797931 113.204884,25.637431 7.86416,4.10306 8.92022,4.474596 12.71839,4.474596 2.82392,0 5.06647,-0.447339 7.04663,-1.405629 z"
     id="path2" />
  <path
     style="fill:#efefef;stroke-width:1.06816"
     d="M 359.51894,798.42227 C 306.44058,792.31767 253.69042,775.81728 209.17159,751.39324 157.25236,722.90916 108.74716,679.70343 73.658706,630.68591 37.117559,579.63902 12.556071,517.6105 3.6833457,453.96745 0.04045523,427.83742 0.04196443,374.41818 3.6863784,346.6175 16.639444,247.80763 70.460799,152.38272 148.47406,89.909889 205.46103,44.274854 267.81001,16.450859 337.70229,5.4644765 359.965,1.9649952 372.91205,1.0967262 402.16176,1.1416244 434.41299,1.19113 452.09644,2.8727994 480.65177,8.6059127 597.6731,32.100523 702.61843,112.66588 756.76479,220.57477 c 21.62202,43.09078 33.77473,81.73466 39.63788,126.04273 2.36552,17.87637 3.29142,72.9673 1.54924,92.17938 -4.61124,50.85082 -21.89381,106.8527 -47.10464,152.63637 -46.52428,84.48959 -124.67398,152.00154 -213.02413,184.02729 -29.70674,10.7683 -66.37496,19.56386 -91.3328,21.90788 -16.46251,1.54615 -76.3784,2.27217 -86.9714,1.05385 z M 572.98349,588.65925 c 5.53206,-2.31145 12.05251,-8.82104 14.0347,-14.01135 1.24237,-3.25307 1.65774,-6.80164 1.35419,-11.5688 -0.88315,-13.86969 -7.71241,-20.34589 -36.6684,-34.77279 -41.88747,-20.86982 -80.83326,-33.96968 -122.4741,-41.19556 -66.39625,-11.52166 -135.83191,-10.14243 -214.59614,4.2626 -27.04459,4.94613 -36.27441,7.95781 -42.03139,13.71479 -10.04361,10.04361 -9.11174,28.13452 1.94947,37.84639 6.48265,5.69184 15.18576,6.83754 30.53465,4.0197 4.40616,-0.80892 15.94227,-2.92881 25.63581,-4.71088 39.58339,-7.27705 67.55147,-9.89227 105.74772,-9.88819 39.50376,0.004 66.66122,2.79845 100.73711,10.36485 32.17417,7.14414 52.95264,14.89494 94.20185,35.13926 12.33723,6.05488 23.15234,11.26108 24.03357,11.56932 3.28868,1.15034 14.07921,0.67707 17.54096,-0.76934 z m 44.72397,-106.39413 c 12.01233,-4.49439 19.8931,-14.97808 20.79043,-27.65722 0.92856,-13.1206 -4.05856,-23.01119 -15.42302,-30.58736 -9.74807,-6.4986 -35.00368,-19.67639 -52.83581,-27.56849 -54.89113,-24.29359 -110.56043,-38.40711 -178.22481,-45.18429 -23.5498,-2.35871 -90.97696,-2.70786 -113.7589,-0.58906 -44.42887,4.13204 -95.62141,14.5263 -111.61808,22.66322 -12.10186,6.15575 -17.04062,14.49834 -17.06116,28.81984 -0.0204,14.19181 5.08578,22.7332 17.32197,28.97564 7.97241,4.06722 15.22847,3.85854 35.00794,-1.00677 42.50848,-10.45615 66.40873,-13.95159 102.81189,-15.03637 39.79717,-1.18592 79.23067,0.19461 102.68766,3.59499 61.74778,8.95109 109.10744,23.76368 162.99118,50.97843 13.80596,6.9729 26.54375,13.09911 28.30621,13.61381 5.52377,1.61313 13.0527,1.21048 19.0045,-1.01637 z m 55.76661,-125.04336 c 13.34949,-6.2753 21.19296,-19.0947 21.19296,-34.63783 0,-21.37986 -8.67976,-30.36444 -47.89693,-49.57894 -89.92143,-44.05712 -206.33728,-65.79636 -331.88605,-61.97567 -58.72238,1.78704 -104.25867,7.78462 -150.36875,19.80502 -18.0276,4.6996 -26.02375,8.45867 -32.32674,15.19708 -8.13933,8.70159 -9.82615,12.94813 -9.83004,24.74681 -0.004,12.75401 2.1453,19.4205 8.56354,26.55912 13.34369,14.84139 24.79999,16.04869 63.01963,6.6412 31.56987,-7.77069 58.25424,-11.78901 93.28369,-14.0473 25.85932,-1.66711 102.9809,-0.69823 127.2202,1.59825 81.62352,7.73322 139.6194,23.3239 204.01832,54.84502 12.63097,6.18244 24.64776,11.90074 26.70396,12.70734 5.88912,2.31015 21.6361,1.27536 28.30621,-1.8601 z"
     id="path1"
     transform="matrix(0.4187175,0,0,0.4187175,-104.21414,-55.829)" />
</svg>
